<svg width="30" height="30" viewBox="0 0 30 30" fill="none" xmlns="http://www.w3.org/2000/svg">
<path fill-rule="evenodd" clip-rule="evenodd" d="M0.333496 15C0.333496 6.89986 6.89999 0.333374 15.0002 0.333374C23.1003 0.333374 29.6668 6.89986 29.6668 15C29.6668 23.1002 23.1003 29.6667 15.0002 29.6667C6.89999 29.6667 0.333496 23.1002 0.333496 15ZM15.0002 4.33337C15.7365 4.33337 16.3335 4.93033 16.3335 5.66671V10.8519C16.3335 11.5883 15.7365 12.1852 15.0002 12.1852C14.2638 12.1852 13.6668 11.5883 13.6668 10.8519V5.66671C13.6668 4.93033 14.2638 4.33337 15.0002 4.33337ZM24.3335 16.3334C25.0699 16.3334 25.6668 15.7364 25.6668 15C25.6668 14.2637 25.0699 13.6667 24.3335 13.6667H19.1483C18.4119 13.6667 17.815 14.2637 17.815 15C17.815 15.7364 18.4119 16.3334 19.1483 16.3334H24.3335ZM15.0002 17.8149C15.7365 17.8149 16.3335 18.4118 16.3335 19.1482V24.3334C16.3335 25.0698 15.7365 25.6667 15.0002 25.6667C14.2638 25.6667 13.6668 25.0698 13.6668 24.3334V19.1482C13.6668 18.4118 14.2638 17.8149 15.0002 17.8149ZM10.852 16.3334C11.5884 16.3334 12.1853 15.7364 12.1853 15C12.1853 14.2637 11.5884 13.6667 10.852 13.6667H5.66683C4.93045 13.6667 4.3335 14.2637 4.3335 15C4.3335 15.7364 4.93045 16.3334 5.66683 16.3334H10.852Z" fill="white"/>
</svg>
