<svg width="28" height="28" viewBox="0 0 28 28" fill="none" xmlns="http://www.w3.org/2000/svg">
<path d="M8.27668 6.39118C8.52657 5.869 8.6665 5.28415 8.6665 4.66663C8.6665 2.45749 6.87564 0.666626 4.6665 0.666626C2.45736 0.666626 0.666504 2.45749 0.666504 4.66663C0.666504 6.87577 2.45736 8.66663 4.6665 8.66663C5.28403 8.66663 5.86888 8.52669 6.39106 8.2768L8.4377 10.3234C7.73967 11.3774 7.33317 12.6412 7.33317 14C7.33317 15.3587 7.73967 16.6226 8.4377 17.6765L6.69056 19.4236C6.47026 19.3647 6.23872 19.3333 5.99984 19.3333C4.52708 19.3333 3.33317 20.5272 3.33317 22C3.33317 23.4727 4.52708 24.6666 5.99984 24.6666C7.4726 24.6666 8.6665 23.4727 8.6665 22C8.6665 21.7611 8.63509 21.5295 8.57618 21.3092L10.3233 19.5621C11.3772 20.2601 12.6411 20.6666 13.9998 20.6666C15.3586 20.6666 16.6224 20.2601 17.6764 19.5621L19.723 21.6087C19.4731 22.1309 19.3332 22.7158 19.3332 23.3333C19.3332 25.5424 21.124 27.3333 23.3332 27.3333C25.5423 27.3333 27.3332 25.5424 27.3332 23.3333C27.3332 21.1242 25.5423 19.3333 23.3332 19.3333C22.7156 19.3333 22.1308 19.4732 21.6086 19.7231L19.562 17.6765C20.26 16.6226 20.6665 15.3587 20.6665 14C20.6665 12.6412 20.26 11.3774 19.562 10.3234L21.3091 8.5763C21.5294 8.63522 21.761 8.66663 21.9998 8.66663C23.4726 8.66663 24.6665 7.47272 24.6665 5.99996C24.6665 4.5272 23.4726 3.33329 21.9998 3.33329C20.5271 3.33329 19.3332 4.5272 19.3332 5.99996C19.3332 6.23884 19.3646 6.47038 19.4235 6.69068L17.6764 8.43782C16.6224 7.7398 15.3586 7.33329 13.9998 7.33329C12.6411 7.33329 11.3772 7.7398 10.3233 8.43782L8.27668 6.39118Z" fill="white"/>
</svg>
