<svg width="28" height="30" viewBox="0 0 28 30" fill="none" xmlns="http://www.w3.org/2000/svg">
<path d="M21.9998 11C24.9454 11 27.3332 8.61223 27.3332 5.66671C27.3332 2.72119 24.9454 0.333374 21.9998 0.333374C19.0543 0.333374 16.6665 2.72119 16.6665 5.66671C16.6665 6.16967 16.7361 6.65636 16.8663 7.11769L9.78855 11.2464C8.82205 10.2709 7.4815 9.66671 5.99984 9.66671C3.05432 9.66671 0.666504 12.0545 0.666504 15C0.666504 17.9456 3.05432 20.3334 5.99984 20.3334C7.4815 20.3334 8.82205 19.7292 9.78854 18.7537L16.8663 22.8824C16.7361 23.3437 16.6665 23.8304 16.6665 24.3334C16.6665 27.2789 19.0543 29.6667 21.9998 29.6667C24.9454 29.6667 27.3332 27.2789 27.3332 24.3334C27.3332 21.3879 24.9454 19 21.9998 19C20.5182 19 19.1776 19.6042 18.2111 20.5797L11.1334 16.451C11.2635 15.9897 11.3332 15.503 11.3332 15C11.3332 14.4971 11.2635 14.0104 11.1334 13.5491L18.2111 9.42039C19.1776 10.3958 20.5182 11 21.9998 11Z" fill="white"/>
</svg>
